<?xml version="1.0" encoding="utf-8"?>
<svg version="1.1" xmlns:xlink="http://www.w3.org/1999/xlink" width="20px" height="17px" xmlns="http://www.w3.org/2000/svg">
  <g transform="matrix(1 0 0 1 -43 -86 )">
    <path d="M 15.6138392857143 10.0162760416667  C 15.6808035714286 10.0826822916667  15.7142857142857 10.1675347222222  15.7142857142857 10.2708333333333  L 15.7142857142857 13.8125  C 15.7142857142857 14.6905381944444  15.3999255952381 15.4412977430556  14.7712053571429 16.0647786458333  C 14.1424851190476 16.6882595486111  13.3854166666667 17  12.5 17  L 3.21428571428571 17  C 2.32886904761905 17  1.5718005952381 16.6882595486111  0.943080357142857 16.0647786458333  C 0.314360119047619 15.4412977430556  0 14.6905381944444  0 13.8125  L 0 4.60416666666667  C 0 3.72612847222222  0.314360119047619 2.97536892361111  0.943080357142857 2.35188802083333  C 1.5718005952381 1.72840711805555  2.32886904761905 1.41666666666667  3.21428571428571 1.41666666666667  L 11.0714285714286 1.41666666666667  C 11.1755952380952 1.41666666666667  11.2611607142857 1.44986979166667  11.328125 1.51627604166667  C 11.3950892857143 1.58268229166667  11.4285714285714 1.66753472222222  11.4285714285714 1.77083333333333  L 11.4285714285714 2.47916666666667  C 11.4285714285714 2.58246527777778  11.3950892857143 2.66731770833333  11.328125 2.73372395833333  C 11.2611607142857 2.80013020833333  11.1755952380952 2.83333333333333  11.0714285714286 2.83333333333333  L 3.21428571428571 2.83333333333333  C 2.72321428571429 2.83333333333333  2.30282738095238 3.00672743055555  1.953125 3.353515625  C 1.60342261904762 3.70030381944444  1.42857142857143 4.1171875  1.42857142857143 4.60416666666667  L 1.42857142857143 13.8125  C 1.42857142857143 14.2994791666667  1.60342261904762 14.7163628472222  1.953125 15.0631510416667  C 2.30282738095238 15.4099392361111  2.72321428571429 15.5833333333333  3.21428571428571 15.5833333333333  L 12.5 15.5833333333333  C 12.9910714285714 15.5833333333333  13.4114583333333 15.4099392361111  13.7611607142857 15.0631510416667  C 14.1108630952381 14.7163628472222  14.2857142857143 14.2994791666667  14.2857142857143 13.8125  L 14.2857142857143 10.2708333333333  C 14.2857142857143 10.1675347222222  14.3191964285714 10.0826822916667  14.3861607142857 10.0162760416667  C 14.453125 9.94986979166667  14.5386904761905 9.91666666666667  14.6428571428571 9.91666666666667  L 15.3571428571429 9.91666666666667  C 15.4613095238095 9.91666666666667  15.546875 9.94986979166667  15.6138392857143 10.0162760416667  Z M 19.7879464285714 0.210286458333333  C 19.9293154761905 0.350477430555553  20 0.516493055555553  20 0.708333333333333  L 20 6.375  C 20 6.56684027777778  19.9293154761905 6.73285590277778  19.7879464285714 6.873046875  C 19.6465773809524 7.01323784722222  19.4791666666667 7.08333333333333  19.2857142857143 7.08333333333333  C 19.0922619047619 7.08333333333333  18.9248511904762 7.01323784722222  18.7834821428571 6.873046875  L 16.8191964285714 4.92513020833333  L 9.54241071428571 12.1412760416667  C 9.46800595238095 12.2150607638889  9.38244047619048 12.251953125  9.28571428571429 12.251953125  C 9.1889880952381 12.251953125  9.10342261904762 12.2150607638889  9.02901785714286 12.1412760416667  L 7.75669642857143 10.8795572916667  C 7.68229166666667 10.8057725694444  7.64508928571429 10.7209201388889  7.64508928571429 10.625  C 7.64508928571429 10.5290798611111  7.68229166666667 10.4442274305556  7.75669642857143 10.3704427083333  L 15.0334821428571 3.154296875  L 13.0691964285714 1.20638020833333  C 12.9278273809524 1.06618923611111  12.8571428571429 0.90017361111111  12.8571428571429 0.708333333333333  C 12.8571428571429 0.516493055555553  12.9278273809524 0.350477430555553  13.0691964285714 0.210286458333333  C 13.2105654761905 0.0700954861111122  13.3779761904762 0  13.5714285714286 0  L 19.2857142857143 0  C 19.4791666666667 0  19.6465773809524 0.0700954861111122  19.7879464285714 0.210286458333333  Z " fill-rule="nonzero" fill="#000000" stroke="none" transform="matrix(1 0 0 1 43 86 )" />
  </g>
</svg>