<?xml version="1.0" encoding="utf-8"?>
<svg version="1.1" xmlns:xlink="http://www.w3.org/1999/xlink" width="20px" height="22px" xmlns="http://www.w3.org/2000/svg">
  <g transform="matrix(1 0 0 1 -150 -86 )">
    <path d="M 17.9119318181818 8.89453125  C 18.0918560606061 8.71310763888889  18.1818181818182 8.49826388888889  18.1818181818182 8.25  C 18.1818181818182 8.00173611111111  18.0918560606061 7.78689236111111  17.9119318181818 7.60546875  C 17.7320075757576 7.42404513888889  17.5189393939394 7.33333333333333  17.2727272727273 7.33333333333333  C 17.0265151515152 7.33333333333333  16.813446969697 7.42404513888889  16.6335227272727 7.60546875  C 16.4535984848485 7.78689236111111  16.3636363636364 8.00173611111111  16.3636363636364 8.25  C 16.3636363636364 8.49826388888889  16.4535984848485 8.71310763888889  16.6335227272727 8.89453125  C 16.813446969697 9.07595486111111  17.0265151515152 9.16666666666667  17.2727272727273 9.16666666666667  C 17.5189393939394 9.16666666666667  17.7320075757576 9.07595486111111  17.9119318181818 8.89453125  Z M 19.2045454545455 6.30208333333333  C 19.7348484848485 6.83680555555555  20 7.48611111111111  20 8.25  C 20 8.84201388888889  19.8319128787879 9.37196180555555  19.4957386363636 9.83984375  C 19.1595643939394 10.3077256944444  18.7215909090909 10.6419270833333  18.1818181818182 10.8424479166667  L 18.1818181818182 16.5  C 18.1818181818182 18.0182291666667  17.5591856060606 19.314453125  16.3139204545455 20.388671875  C 15.0686553030303 21.462890625  13.5700757575758 22  11.8181818181818 22  C 10.0662878787879 22  8.56770833333334 21.462890625  7.32244318181818 20.388671875  C 6.07717803030303 19.314453125  5.45454545454545 18.0182291666667  5.45454545454545 16.5  L 5.45454545454545 14.609375  C 3.90151515151515 14.4184027777778  2.60416666666667 13.8072916666667  1.5625 12.7760416666667  C 0.520833333333333 11.7447916666667  0 10.5416666666667  0 9.16666666666667  L 0 1.83333333333333  C 0 1.58506944444444  0.0899621212121214 1.37022569444444  0.269886363636364 1.18880208333333  C 0.449810606060606 1.00737847222222  0.662878787878788 0.916666666666666  0.909090909090909 0.916666666666666  C 0.965909090909091 0.916666666666666  1.04166666666667 0.926215277777775  1.13636363636364 0.9453125  C 1.29734848484849 0.658854166666666  1.51988636363636 0.4296875  1.80397727272727 0.2578125  C 2.08806818181818 0.0859375  2.39583333333333 0  2.72727272727273 0  C 3.22916666666667 0  3.65767045454545 0.179036458333334  4.01278409090909 0.537109375  C 4.36789772727273 0.895182291666666  4.54545454545454 1.32725694444444  4.54545454545454 1.83333333333333  C 4.54545454545454 2.33940972222222  4.36789772727273 2.771484375  4.01278409090909 3.12955729166667  C 3.65767045454545 3.48763020833333  3.22916666666667 3.66666666666667  2.72727272727273 3.66666666666667  C 2.41477272727273 3.66666666666667  2.11174242424242 3.58072916666667  1.81818181818182 3.40885416666667  L 1.81818181818182 9.16666666666667  C 1.81818181818182 10.1788194444444  2.26325757575758 11.04296875  3.15340909090909 11.7591145833333  C 4.04356060606061 12.4752604166667  5.11363636363636 12.8333333333333  6.36363636363636 12.8333333333333  C 7.61363636363636 12.8333333333333  8.68371212121212 12.4752604166667  9.57386363636364 11.7591145833333  C 10.4640151515152 11.04296875  10.9090909090909 10.1788194444444  10.9090909090909 9.16666666666667  L 10.9090909090909 3.40885416666667  C 10.6155303030303 3.58072916666667  10.3125 3.66666666666667  10 3.66666666666667  C 9.49810606060606 3.66666666666667  9.06960227272727 3.48763020833333  8.71448863636364 3.12955729166667  C 8.359375 2.771484375  8.18181818181818 2.33940972222222  8.18181818181818 1.83333333333333  C 8.18181818181818 1.32725694444444  8.359375 0.895182291666666  8.71448863636364 0.537109375  C 9.06960227272727 0.179036458333334  9.49810606060606 0  10 0  C 10.3314393939394 0  10.6392045454545 0.0859375  10.9232954545455 0.2578125  C 11.2073863636364 0.4296875  11.4299242424242 0.658854166666666  11.5909090909091 0.9453125  C 11.6856060606061 0.926215277777775  11.7613636363636 0.916666666666666  11.8181818181818 0.916666666666666  C 12.0643939393939 0.916666666666666  12.2774621212121 1.00737847222222  12.4573863636364 1.18880208333333  C 12.6373106060606 1.37022569444444  12.7272727272727 1.58506944444444  12.7272727272727 1.83333333333333  L 12.7272727272727 9.16666666666667  C 12.7272727272727 10.5416666666667  12.2064393939394 11.7447916666667  11.1647727272727 12.7760416666667  C 10.1231060606061 13.8072916666667  8.82575757575758 14.4184027777778  7.27272727272727 14.609375  L 7.27272727272727 16.5  C 7.27272727272727 17.5121527777778  7.71780303030303 18.3763020833333  8.60795454545455 19.0924479166667  C 9.49810606060606 19.80859375  10.5681818181818 20.1666666666667  11.8181818181818 20.1666666666667  C 13.0681818181818 20.1666666666667  14.1382575757576 19.80859375  15.0284090909091 19.0924479166667  C 15.9185606060606 18.3763020833333  16.3636363636364 17.5121527777778  16.3636363636364 16.5  L 16.3636363636364 10.8424479166667  C 15.8238636363636 10.6419270833333  15.3858901515152 10.3077256944444  15.0497159090909 9.83984375  C 14.7135416666667 9.37196180555555  14.5454545454545 8.84201388888889  14.5454545454545 8.25  C 14.5454545454545 7.48611111111111  14.8106060606061 6.83680555555555  15.3409090909091 6.30208333333333  C 15.8712121212121 5.76736111111111  16.5151515151515 5.5  17.2727272727273 5.5  C 18.030303030303 5.5  18.6742424242424 5.76736111111111  19.2045454545455 6.30208333333333  Z " fill-rule="nonzero" fill="#000000" stroke="none" transform="matrix(1 0 0 1 150 86 )" />
  </g>
</svg>