<svg xmlns="http://www.w3.org/2000/svg" xmlns:xlink="http://www.w3.org/1999/xlink" width="48" height="48" viewBox="0 0 48 48">
    <defs>
        <path id="a" d="M18.697 14.933c.462 0 .837.375.837.837v2.928a.836.836 0 0 1-.837.835H15.77a.836.836 0 0 1-.836-.835V15.77c0-.462.373-.837.836-.837h2.927zm6.574 0c.462 0 .837.375.837.837v2.928a.836.836 0 0 1-.837.835h-2.927a.836.836 0 0 1-.836-.835V15.77c0-.462.373-.837.836-.837h2.927zm6.574 0c.462 0 .836.375.836.837v2.928a.836.836 0 0 1-.836.835h-2.928a.836.836 0 0 1-.836-.835V15.77c0-.462.375-.837.836-.837h2.928zm-13.148 6.569c.462 0 .837.374.837.836v2.927a.837.837 0 0 1-.837.837H15.77a.836.836 0 0 1-.836-.837v-2.927c0-.462.373-.836.836-.836h2.927zm6.574 0c.462 0 .837.374.837.836v2.927a.837.837 0 0 1-.837.837h-2.927a.836.836 0 0 1-.836-.837v-2.927c0-.462.373-.836.836-.836h2.927zm6.574 0c.462 0 .836.374.836.836v2.927a.837.837 0 0 1-.836.837h-2.928a.836.836 0 0 1-.836-.837v-2.927c0-.462.375-.836.836-.836h2.928zM18.697 28.07c.462 0 .837.374.837.836v2.928a.837.837 0 0 1-.837.836H15.77a.836.836 0 0 1-.836-.836v-2.928c0-.462.373-.836.836-.836h2.927zm6.574 0c.462 0 .837.374.837.836v2.928a.837.837 0 0 1-.837.836h-2.927a.836.836 0 0 1-.836-.836v-2.928c0-.462.373-.836.836-.836h2.927zm6.574 0c.462 0 .836.374.836.836v2.928a.837.837 0 0 1-.836.836h-2.928a.836.836 0 0 1-.836-.836v-2.928c0-.462.375-.836.836-.836h2.928z"/>
    </defs>
    <use fill="#4E78C2" fill-rule="evenodd" xlink:href="#a"/>
</svg>
