<svg xmlns="http://www.w3.org/2000/svg" xmlns:xlink="http://www.w3.org/1999/xlink" width="48" height="48" viewBox="0 0 48 48">
    <defs>
        <path id="a" d="M12.551.4a1.21 1.21 0 0 1 1.221 1.2V18.399c0 .663-.545 1.202-1.221 1.202-.314 0-.6-.116-.815-.307L6.04 14.798H1.555c-.672 0-1.222-.54-1.222-1.2V6.4c0-.658.55-1.198 1.222-1.198h4.486L11.736.706c.215-.191.5-.306.815-.306zm8.48 6.47c.422.997.635 2.05.635 3.129a7.991 7.991 0 0 1-.635 3.129 8.18 8.18 0 0 1-1.808 2.666.926.926 0 0 1-1.264 0 .87.87 0 0 1 0-1.243c.619-.607 1.098-1.31 1.426-2.086a6.313 6.313 0 0 0 .493-2.466 6.303 6.303 0 0 0-1.919-4.552.87.87 0 0 1 0-1.243.902.902 0 0 1 .633-.256c.237 0 .462.09.63.256a8.162 8.162 0 0 1 1.81 2.666zm-2.803 3.129c0 .633-.126 1.252-.374 1.838a4.853 4.853 0 0 1-1.062 1.57.93.93 0 0 1-1.264 0 .869.869 0 0 1 0-1.243c.299-.295.527-.627.68-.99a3.01 3.01 0 0 0 .233-1.175c0-.412-.078-.808-.233-1.174a3.063 3.063 0 0 0-.68-.992.863.863 0 0 1 0-1.24.892.892 0 0 1 .632-.258c.239 0 .463.091.632.258.454.445.811.973 1.062 1.569.248.585.374 1.204.374 1.837z"/>
    </defs>
    <use fill="#4E78C2" fill-rule="evenodd" transform="translate(13 14)" xlink:href="#a"/>
</svg>
