<svg xmlns="http://www.w3.org/2000/svg" xmlns:xlink="http://www.w3.org/1999/xlink" width="48" height="48" viewBox="0 0 48 48">
    <defs>
        <path id="a" d="M11.579 9.6L18.79 2.39a1.397 1.397 0 0 0 0-1.979 1.396 1.396 0 0 0-1.977 0L9.6 7.622 2.39.41A1.397 1.397 0 0 0 .41.41a1.397 1.397 0 0 0 0 1.979L7.622 9.6.41 16.811a1.397 1.397 0 0 0 0 1.979c.273.273.631.41.99.41.357 0 .715-.137.989-.41L9.6 11.578l7.213 7.212a1.392 1.392 0 0 0 1.977 0 1.397 1.397 0 0 0 0-1.979l-7.211-7.21z"/>
    </defs>
    <use fill="#4E78C2" fill-rule="evenodd" transform="translate(14 14)" xlink:href="#a"/>
</svg>
