<svg xmlns="http://www.w3.org/2000/svg" xmlns:xlink="http://www.w3.org/1999/xlink" width="32" height="32" viewBox="0 0 32 32">
    <defs>
        <path id="a" d="M4.943 12.667l1.528 1.528-.942.943L2.39 12l3.138-3.138.942.943-1.528 1.528h5.724a2 2 0 0 0 2-2v-2H14v2a3.333 3.333 0 0 1-3.333 3.334H4.943zm6.115-9.333l-1.53-1.53.943-.942L13.61 4l-3.138 3.138-.942-.943 1.528-1.528H5.333a2 2 0 0 0-2 2v2H2v-2a3.333 3.333 0 0 1 3.333-3.333h5.725z"/>
    </defs>
    <g fill="none" fill-rule="evenodd" transform="translate(8 8)">
        <path fill="none" d="M0 0h16v16H0z"/>
        <use fill="#9EBDF0" fill-rule="nonzero" xlink:href="#a"/>
    </g>
</svg>
