<svg xmlns="http://www.w3.org/2000/svg" xmlns:xlink="http://www.w3.org/1999/xlink" width="32" height="32" viewBox="0 0 32 32">
    <defs>
        <path id="a" d="M13 10.213V6.595l3.29 2.193-.802 1.202-1.044-.696v2.623c0 1.05-1.007 1.805-2.166 1.805-1.16 0-2.167-.756-2.167-1.805 0-1.05 1.008-1.806 2.167-1.806.25 0 .494.035.722.102zm-10.111 3.51v-1.445h5.778v1.444H2.889zm0-2.89V9.39h5.778v1.444H2.889zm0-2.889V6.5h8.667v1.444H2.889zm0-2.888V3.61h10.833v1.445H2.89zm9.389 7.222c.436 0 .722-.214.722-.361s-.286-.361-.722-.361c-.437 0-.722.214-.722.36 0 .148.285.362.722.362z"/>
    </defs>
    <g fill="none" fill-rule="evenodd" transform="translate(7.333 7.333)">
        <path fill="none" d="M0 0h17.333v17.333H0z"/>
        <use fill="#9EBDF0" fill-rule="nonzero" xlink:href="#a"/>
    </g>
</svg>
