<svg xmlns="http://www.w3.org/2000/svg" xmlns:xlink="http://www.w3.org/1999/xlink" width="48" height="48" viewBox="0 0 48 48">
    <defs>
        <path id="a" d="M8 1.3h12.65a1.3 1.3 0 1 1 0 2.6H8a1.3 1.3 0 0 1 0-2.6zM8 8h12.65a1.3 1.3 0 1 1 0 2.6H8A1.3 1.3 0 1 1 8 8zm0 6.7h12.65a1.3 1.3 0 1 1 0 2.6H8a1.3 1.3 0 1 1 0-2.6zM2.1 7.5a1.8 1.8 0 1 1 0 3.6 1.8 1.8 0 0 1 0-3.6zm0-6.7a1.8 1.8 0 1 1 0 3.6 1.8 1.8 0 0 1 0-3.6zm0 13.4a1.8 1.8 0 1 1 0 3.6 1.8 1.8 0 0 1 0-3.6z"/>
    </defs>
    <use fill="#4E78C2" fill-rule="nonzero" transform="translate(13 15)" xlink:href="#a"/>
</svg>
