<svg xmlns="http://www.w3.org/2000/svg" xmlns:xlink="http://www.w3.org/1999/xlink" width="48" height="48" viewBox="0 0 48 48">
    <defs>
        <path id="a" d="M27.134 12.863l2.585 2.551c.452.446.47 1.152.041 1.576-.43.425-1.144.406-1.596-.041l-2.585-2.55a1.13 1.13 0 0 1-.263-1.247l-.42-.416a6.234 6.234 0 0 1-4.085 1.524 6.231 6.231 0 0 1-4.392-1.796 6.074 6.074 0 0 1 0-8.67A6.233 6.233 0 0 1 20.81 2c1.59 0 3.179.598 4.391 1.795a6.067 6.067 0 0 1 .251 8.394l.42.415c.41-.171.913-.085 1.262.259zm-9.297-1.735c.8.79 1.862 1.224 2.992 1.224s2.191-.435 2.99-1.224a4.117 4.117 0 0 0 1.24-2.952c0-1.116-.44-2.165-1.24-2.954A4.23 4.23 0 0 0 20.83 4a4.23 4.23 0 0 0-2.992 1.223 4.142 4.142 0 0 0 0 5.905zM5.154 1.2h7.292c.694 0 1.254.583 1.254 1.3 0 .717-.56 1.3-1.254 1.3H5.154C4.46 3.8 3.9 3.217 3.9 2.5c0-.717.56-1.3 1.254-1.3zm-2.1 6.7h7.292c.694 0 1.254.583 1.254 1.3 0 .717-.56 1.3-1.254 1.3H3.054C2.36 10.5 1.8 9.917 1.8 9.2c0-.717.56-1.3 1.254-1.3zm3.488 6.7h6.855c.81 0 1.473.58 1.473 1.3 0 .72-.662 1.3-1.473 1.3H6.542c-.81 0-1.472-.58-1.472-1.3 0-.72.661-1.3 1.472-1.3z"/>
    </defs>
    <use fill="#4E78C2" fill-rule="nonzero" transform="translate(8 15)" xlink:href="#a"/>
</svg>
