<?xml version="1.0" encoding="utf-8"?>
<svg version="1.1" xmlns:xlink="http://www.w3.org/1999/xlink" width="29px" height="25px" xmlns="http://www.w3.org/2000/svg">
  <g transform="matrix(1 0 0 1 -16 -17 )">
    <path d="M 20.5686383928571 16.5201822916667  C 20.6657366071429 16.4225260416667  20.7142857142857 16.2977430555556  20.7142857142857 16.1458333333333  L 20.7142857142857 13.0208333333333  C 20.7142857142857 12.8689236111111  20.6657366071429 12.744140625  20.5686383928571 12.646484375  C 20.4715401785714 12.548828125  20.3474702380952 12.5  20.1964285714286 12.5  L 16.5714285714286 12.5  L 16.5714285714286 8.85416666666667  C 16.5714285714286 8.70225694444444  16.5228794642857 8.57747395833333  16.42578125 8.47981770833333  C 16.3286830357143 8.38216145833333  16.2046130952381 8.33333333333333  16.0535714285714 8.33333333333333  L 12.9464285714286 8.33333333333333  C 12.7953869047619 8.33333333333333  12.6713169642857 8.38216145833333  12.57421875 8.47981770833333  C 12.4771205357143 8.57747395833333  12.4285714285714 8.70225694444444  12.4285714285714 8.85416666666667  L 12.4285714285714 12.5  L 8.80357142857143 12.5  C 8.65252976190476 12.5  8.52845982142857 12.548828125  8.43136160714286 12.646484375  C 8.33426339285714 12.744140625  8.28571428571428 12.8689236111111  8.28571428571428 13.0208333333333  L 8.28571428571428 16.1458333333333  C 8.28571428571428 16.2977430555556  8.33426339285714 16.4225260416667  8.43136160714286 16.5201822916667  C 8.52845982142857 16.6178385416667  8.65252976190476 16.6666666666667  8.80357142857143 16.6666666666667  L 12.4285714285714 16.6666666666667  L 12.4285714285714 20.3125  C 12.4285714285714 20.4644097222222  12.4771205357143 20.5891927083333  12.57421875 20.6868489583333  C 12.6713169642857 20.7845052083333  12.7953869047619 20.8333333333333  12.9464285714286 20.8333333333333  L 16.0535714285714 20.8333333333333  C 16.2046130952381 20.8333333333333  16.3286830357143 20.7845052083333  16.42578125 20.6868489583333  C 16.5228794642857 20.5891927083333  16.5714285714286 20.4644097222222  16.5714285714286 20.3125  L 16.5714285714286 16.6666666666667  L 20.1964285714286 16.6666666666667  C 20.3474702380952 16.6666666666667  20.4715401785714 16.6178385416667  20.5686383928571 16.5201822916667  Z M 10.3571428571429 2.08333333333333  L 10.3571428571429 4.16666666666667  L 18.6428571428571 4.16666666666667  L 18.6428571428571 2.08333333333333  L 10.3571428571429 2.08333333333333  Z M 3.625 4.16666666666667  L 4.14285714285714 4.16666666666667  L 4.14285714285714 25  L 3.625 25  C 2.63244047619048 25  1.78013392857143 24.6419270833333  1.06808035714286 23.92578125  C 0.356026785714286 23.2096354166667  0 22.3524305555556  0 21.3541666666667  L 0 7.8125  C 0 6.81423611111111  0.356026785714286 5.95703125  1.06808035714286 5.24088541666667  C 1.78013392857143 4.52473958333333  2.63244047619048 4.16666666666667  3.625 4.16666666666667  Z M 20.7142857142857 4.16666666666667  L 23 4.16666666666667  L 23 25  L 6 25  L 6 4.16666666666667  L 8.28571428571428 4.16666666666667  L 8.28571428571428 1.5625  C 8.28571428571428 1.12847222222222  8.43675595238095 0.759548611111108  8.73883928571428 0.455729166666666  C 9.04092261904762 0.151909722222221  9.40773809523809 0  9.83928571428572 0  L 19.1607142857143 0  C 19.5922619047619 0  19.9590773809524 0.151909722222221  20.2611607142857 0.455729166666666  C 20.5632440476191 0.759548611111108  20.7142857142857 1.12847222222222  20.7142857142857 1.5625  L 20.7142857142857 4.16666666666667  Z M 27.9319196428571 5.24088541666667  C 28.6439732142857 5.95703125  29 6.81423611111111  29 7.8125  L 29 21.3541666666667  C 29 22.3524305555556  28.6439732142857 23.2096354166667  27.9319196428571 23.92578125  C 27.2198660714286 24.6419270833333  26.3675595238095 25  25.375 25  L 24.8571428571429 25  L 24.8571428571429 4.16666666666667  L 25.375 4.16666666666667  C 26.3675595238095 4.16666666666667  27.2198660714286 4.52473958333333  27.9319196428571 5.24088541666667  Z " fill-rule="nonzero" fill="#000000" stroke="none" transform="matrix(1 0 0 1 16 17 )" />
  </g>
</svg>