<?xml version="1.0" encoding="utf-8"?>
<svg version="1.1" xmlns:xlink="http://www.w3.org/1999/xlink" width="17px" height="18px" xmlns="http://www.w3.org/2000/svg">
  <g transform="matrix(1 0 0 1 -283 -21 )">
    <path d="M 16.5726902173913 7.9602053915276  C 16.8575634057971 8.22978177150192  17 8.57637997432606  17 9  C 17 9.41591784338896  16.8575634057971 9.76636713735558  16.5726902173913 10.0513478818999  L 9.05434782608696 17.5725288831836  C 8.75407608695652 17.8575096277279  8.40375905797102 18  8.00339673913044 18  C 7.61073369565217 18  7.26426630434783 17.8575096277279  6.96399456521739 17.5725288831836  L 6.09782608695652 16.7060333761232  C 5.80525362318841 16.413350449294  5.65896739130435 16.0629011553273  5.65896739130435 15.6546854942234  C 5.65896739130435 15.2464698331194  5.80525362318841 14.8960205391528  6.09782608695652 14.6033376123235  L 9.48165760869565 11.2182284980745  L 1.35122282608696 11.2182284980745  C 0.950860507246377 11.2182284980745  0.625566123188406 11.0738125802311  0.375339673913044 10.7849807445443  C 0.125113224637681 10.4961489088575  0 10.1476251604621  0 9.73940949935815  L 0 8.26059050064185  C 0 7.85237483953787  0.125113224637681 7.50385109114249  0.375339673913044 7.21501925545571  C 0.625566123188406 6.92618741976893  0.950860507246377 6.78177150192555  1.35122282608696 6.78177150192555  L 9.48165760869565 6.78177150192555  L 6.09782608695652 3.38510911424904  C 5.80525362318841 3.10783055198973  5.65896739130435 2.7612323491656  5.65896739130435 2.34531450577664  C 5.65896739130435 1.92939666238768  5.80525362318841 1.58279845956354  6.09782608695652 1.30551989730424  L 6.96399456521739 0.439024390243903  C 7.25656702898551 0.146341463414633  7.60303442028986 0  8.00339673913044 0  C 8.41145833333333 0  8.76177536231884 0.146341463414633  9.05434782608696 0.439024390243903  L 16.5726902173913 7.9602053915276  Z " fill-rule="nonzero" fill="#000000" stroke="none" transform="matrix(1 0 0 1 283 21 )" />
  </g>
</svg>