<?xml version="1.0" encoding="utf-8"?>
<svg version="1.1" xmlns:xlink="http://www.w3.org/1999/xlink" width="20px" height="22px" xmlns="http://www.w3.org/2000/svg">
  <g transform="matrix(1 0 0 1 -282 -13 )">
    <path d="M 6.11607142857143 0.871651785714285  C 7.35119047619048 0.290550595238095  8.64583333333333 0  10 0  C 11.3541666666667 0  12.6488095238095 0.290550595238095  13.8839285714286 0.871651785714285  C 15.1190476190476 1.45275297619048  16.1830357142857 2.234375  17.0758928571429 3.21651785714286  C 17.96875 4.19866071428571  18.6793154761905 5.36904761904762  19.2075892857143 6.72767857142857  C 19.7358630952381 8.08630952380952  20 9.51041666666667  20 11  C 20 12.4813988095238  19.7377232142857 13.9014136904762  19.2131696428571 15.2600446428571  C 18.6886160714286 16.6186755952381  17.9799107142857 17.7890625  17.0870535714286 18.7712053571429  C 16.1941964285714 19.7533482142857  15.1302083333333 20.5370163690476  13.8950892857143 21.1222098214286  C 12.6599702380952 21.7074032738095  11.3616071428571 22  10 22  C 8.63839285714286 22  7.34002976190476 21.7094494047619  6.10491071428571 21.1283482142857  C 4.86979166666667 20.5472470238095  3.80766369047619 19.7635788690476  2.91852678571429 18.77734375  C 2.02938988095238 17.7911086309524  1.32068452380952 16.6207217261905  0.792410714285714 15.2661830357143  C 0.264136904761905 13.9116443452381  0 12.4895833333333  0 11  C 0 9.51041666666667  0.264136904761905 8.08630952380952  0.792410714285714 6.72767857142857  C 1.32068452380952 5.36904761904762  2.03125 4.19866071428571  2.92410714285714 3.21651785714286  C 3.81696428571429 2.234375  4.88095238095238 1.45275297619048  6.11607142857143 0.871651785714285  Z M 13.4933035714286 12.5714285714286  C 15.2790178571429 12.5714285714286  16.4174107142857 13.9095982142857  16.9084821428571 16.5859375  C 18.0171130952381 14.9081101190476  18.5714285714286 13.046130952381  18.5714285714286 11  C 18.5714285714286 9.72321428571428  18.344494047619 8.50372023809524  17.890625 7.34151785714286  C 17.436755952381 6.17931547619048  16.8266369047619 5.17671130952381  16.0602678571429 4.33370535714286  C 15.2938988095238 3.49069940476191  14.3824404761905 2.81956845238095  13.3258928571429 2.3203125  C 12.2693452380952 1.82105654761905  11.1607142857143 1.57142857142857  10 1.57142857142857  C 8.83928571428571 1.57142857142857  7.73065476190476 1.82105654761905  6.67410714285714 2.3203125  C 5.61755952380952 2.81956845238095  4.70610119047619 3.49069940476191  3.93973214285714 4.33370535714286  C 3.1733630952381 5.17671130952381  2.56324404761905 6.17931547619048  2.109375 7.34151785714286  C 1.65550595238095 8.50372023809524  1.42857142857143 9.72321428571428  1.42857142857143 11  C 1.42857142857143 13.046130952381  1.9828869047619 14.9081101190476  3.09151785714286 16.5859375  C 3.58258928571429 13.9095982142857  4.72098214285714 12.5714285714286  6.50669642857143 12.5714285714286  C 7.48139880952381 13.6190476190476  8.64583333333333 14.1428571428571  10 14.1428571428571  C 11.3541666666667 14.1428571428571  12.5186011904762 13.6190476190476  13.4933035714286 12.5714285714286  Z M 13.0301339285714 11.9760044642857  C 13.8671875 11.0552455357143  14.2857142857143 9.94419642857143  14.2857142857143 8.64285714285714  C 14.2857142857143 7.34151785714286  13.8671875 6.23046875  13.0301339285714 5.30970982142857  C 12.1930803571429 4.38895089285714  11.1830357142857 3.92857142857143  10 3.92857142857143  C 8.81696428571429 3.92857142857143  7.80691964285714 4.38895089285714  6.96986607142857 5.30970982142857  C 6.1328125 6.23046875  5.71428571428571 7.34151785714286  5.71428571428571 8.64285714285714  C 5.71428571428571 9.94419642857143  6.1328125 11.0552455357143  6.96986607142857 11.9760044642857  C 7.80691964285714 12.8967633928571  8.81696428571429 13.3571428571429  10 13.3571428571429  C 11.1830357142857 13.3571428571429  12.1930803571429 12.8967633928571  13.0301339285714 11.9760044642857  Z " fill-rule="nonzero" fill="#000000" stroke="none" transform="matrix(1 0 0 1 282 13 )" />
  </g>
</svg>