<?xml version="1.0" encoding="utf-8"?>
<svg version="1.1" xmlns:xlink="http://www.w3.org/1999/xlink" width="21px" height="21px" xmlns="http://www.w3.org/2000/svg">
  <g transform="matrix(1 0 0 1 -22 -63 )">
    <path d="M 3.81818181818182 15.2727272727273  L 5.72727272727273 15.2727272727273  L 5.72727272727273 17.1818181818182  L 3.81818181818182 17.1818181818182  L 3.81818181818182 15.2727272727273  Z M 3.81818181818182 3.81818181818182  L 5.72727272727273 3.81818181818182  L 5.72727272727273 5.72727272727273  L 3.81818181818182 5.72727272727273  L 3.81818181818182 3.81818181818182  Z M 15.2727272727273 3.81818181818182  L 17.1818181818182 3.81818181818182  L 17.1818181818182 5.72727272727273  L 15.2727272727273 5.72727272727273  L 15.2727272727273 3.81818181818182  Z M 1.90909090909091 13.3636363636364  L 1.90909090909091 19.0759943181818  L 7.63636363636364 19.0759943181818  L 7.63636363636364 13.3636363636364  L 1.90909090909091 13.3636363636364  Z M 1.90909090909091 1.90909090909091  L 1.90909090909091 7.63636363636364  L 7.63636363636364 7.63636363636364  L 7.63636363636364 1.90909090909091  L 1.90909090909091 1.90909090909091  Z M 13.3636363636364 1.90909090909091  L 13.3636363636364 7.63636363636364  L 19.0909090909091 7.63636363636364  L 19.0909090909091 1.90909090909091  L 13.3636363636364 1.90909090909091  Z M 0 11.4545454545455  L 9.54545454545454 11.4545454545455  L 9.54545454545454 21  L 0 21  L 0 11.4545454545455  Z M 15.2727272727273 19.0909090909091  L 17.1818181818182 19.0909090909091  L 17.1818181818182 21  L 15.2727272727273 21  L 15.2727272727273 19.0909090909091  Z M 19.0909090909091 19.0909090909091  L 21 19.0909090909091  L 21 21  L 19.0909090909091 21  L 19.0909090909091 19.0909090909091  Z M 19.0909090909091 11.4545454545455  L 21 11.4545454545455  L 21 17.1818181818182  L 15.2727272727273 17.1818181818182  L 15.2727272727273 15.2727272727273  L 13.3636363636364 15.2727272727273  L 13.3636363636364 21  L 11.4545454545455 21  L 11.4545454545455 11.4545454545455  L 17.1818181818182 11.4545454545455  L 17.1818181818182 13.3636363636364  L 19.0909090909091 13.3636363636364  L 19.0909090909091 11.4545454545455  Z M 0 0  L 9.54545454545454 0  L 9.54545454545454 9.54545454545455  L 0 9.54545454545455  L 0 0  Z M 11.4545454545455 0  L 21 0  L 21 9.54545454545455  L 11.4545454545455 9.54545454545455  L 11.4545454545455 0  Z " fill-rule="nonzero" fill="#000000" stroke="none" transform="matrix(1 0 0 1 22 63 )" />
  </g>
</svg>