<?xml version="1.0" encoding="utf-8"?>
<svg version="1.1" xmlns:xlink="http://www.w3.org/1999/xlink" width="23px" height="23px" xmlns="http://www.w3.org/2000/svg">
  <g transform="matrix(1 0 0 1 -15 -11 )">
    <path d="M 26.5 11  C 32.94 11  38 16.06  38 22.5  C 38 28.94  32.94 34  26.5 34  C 20.06 34  15 28.94  15 22.5  C 15 16.06  20.06 11  26.5 11  Z " fill-rule="nonzero" fill="#7f7f7f" stroke="none" />
    <path d="M 26.5 11.5  C 32.66 11.5  37.5 16.34  37.5 22.5  C 37.5 28.66  32.66 33.5  26.5 33.5  C 20.34 33.5  15.5 28.66  15.5 22.5  C 15.5 16.34  20.34 11.5  26.5 11.5  Z " stroke-width="1" stroke="#797979" fill="none" />
  </g>
</svg>