<?xml version="1.0" encoding="utf-8"?>
<svg version="1.1" xmlns:xlink="http://www.w3.org/1999/xlink" width="22px" height="22px" xmlns="http://www.w3.org/2000/svg">
  <g transform="matrix(1 0 0 1 -19 -19 )">
    <path d="M 21.1263020833333 6.73177083333333  C 21.7087673611111 8.08767361111111  22 9.51041666666667  22 11  C 22 12.4895833333333  21.7087673611111 13.9123263888889  21.1263020833333 15.2682291666667  C 20.5438368055556 16.6241319444444  19.7608506944444 17.7938368055556  18.77734375 18.77734375  C 17.7938368055556 19.7608506944444  16.6241319444444 20.5438368055556  15.2682291666667 21.1263020833333  C 13.9123263888889 21.7087673611111  12.4895833333333 22  11 22  C 9.35763888888889 22  7.79644097222222 21.6538628472222  6.31640625 20.9615885416667  C 4.83637152777778 20.2693142361111  3.57595486111111 19.29296875  2.53515625 18.0325520833333  C 2.46831597222222 17.9370659722222  2.43728298611111 17.8296440972222  2.44205729166667 17.7102864583333  C 2.44683159722222 17.5909288194444  2.48741319444444 17.4930555555556  2.56380208333333 17.4166666666667  L 4.52604166666667 15.4401041666667  C 4.62152777777778 15.3541666666667  4.74088541666667 15.3111979166667  4.88411458333333 15.3111979166667  C 5.03689236111111 15.3302951388889  5.14670138888889 15.3875868055556  5.21354166666667 15.4830729166667  C 5.91059027777778 16.3901909722222  6.76519097222222 17.0920138888889  7.77734375 17.5885416666667  C 8.78949652777778 18.0850694444444  9.86371527777778 18.3333333333333  11 18.3333333333333  C 11.9930555555556 18.3333333333333  12.9407552083333 18.1399739583333  13.8430989583333 17.7532552083333  C 14.7454427083333 17.3665364583333  15.5260416666667 16.84375  16.1848958333333 16.1848958333333  C 16.84375 15.5260416666667  17.3665364583333 14.7454427083333  17.7532552083333 13.8430989583333  C 18.1399739583333 12.9407552083333  18.3333333333333 11.9930555555556  18.3333333333333 11  C 18.3333333333333 10.0069444444444  18.1399739583333 9.05924479166667  17.7532552083333 8.15690104166667  C 17.3665364583333 7.25455729166667  16.84375 6.47395833333333  16.1848958333333 5.81510416666667  C 15.5260416666667 5.15625  14.7454427083333 4.63346354166667  13.8430989583333 4.24674479166667  C 12.9407552083333 3.86002604166667  11.9930555555556 3.66666666666667  11 3.66666666666667  C 10.0642361111111 3.66666666666667  9.16666666666667 3.83615451388889  8.30729166666667 4.17513020833333  C 7.44791666666667 4.51410590277778  6.68402777777778 4.99869791666667  6.015625 5.62890625  L 7.97786458333333 7.60546875  C 8.27387152777778 7.89192708333333  8.34071180555556 8.22135416666667  8.17838541666667 8.59375  C 8.01605902777778 8.97569444444445  7.734375 9.16666666666667  7.33333333333333 9.16666666666667  L 0.916666666666667 9.16666666666667  C 0.668402777777778 9.16666666666667  0.453559027777778 9.07595486111111  0.272135416666667 8.89453125  C 0.0907118055555556 8.71310763888889  0 8.49826388888889  0 8.25  L 0 1.83333333333333  C 0 1.43229166666667  0.190972222222222 1.15060763888889  0.572916666666667 0.98828125  C 0.9453125 0.825954861111109  1.27473958333333 0.892795138888889  1.56119791666667 1.18880208333333  L 3.42317708333333 3.03645833333333  C 4.44487847222222 2.07204861111111  5.61219618055556 1.32486979166667  6.92513020833333 0.794921875  C 8.23806423611111 0.264973958333334  9.59635416666667 0  11 0  C 12.4895833333333 0  13.9123263888889 0.291232638888889  15.2682291666667 0.873697916666666  C 16.6241319444444 1.45616319444444  17.7938368055556 2.23914930555555  18.77734375 3.22265625  C 19.7608506944444 4.20616319444444  20.5438368055556 5.37586805555555  21.1263020833333 6.73177083333333  Z M 12.7044270833333 6.54557291666667  C 12.7903645833333 6.63151041666667  12.8333333333333 6.74131944444444  12.8333333333333 6.875  L 12.8333333333333 13.2916666666667  C 12.8333333333333 13.4253472222222  12.7903645833333 13.53515625  12.7044270833333 13.62109375  C 12.6184895833333 13.70703125  12.5086805555556 13.75  12.375 13.75  L 7.79166666666667 13.75  C 7.65798611111111 13.75  7.54817708333333 13.70703125  7.46223958333333 13.62109375  C 7.37630208333333 13.53515625  7.33333333333333 13.4253472222222  7.33333333333333 13.2916666666667  L 7.33333333333333 12.375  C 7.33333333333333 12.2413194444444  7.37630208333333 12.1315104166667  7.46223958333333 12.0455729166667  C 7.54817708333333 11.9596354166667  7.65798611111111 11.9166666666667  7.79166666666667 11.9166666666667  L 11 11.9166666666667  L 11 6.875  C 11 6.74131944444444  11.04296875 6.63151041666667  11.12890625 6.54557291666667  C 11.21484375 6.45963541666667  11.3246527777778 6.41666666666667  11.4583333333333 6.41666666666667  L 12.375 6.41666666666667  C 12.5086805555556 6.41666666666667  12.6184895833333 6.45963541666667  12.7044270833333 6.54557291666667  Z " fill-rule="nonzero" fill="#02a7f0" stroke="none" transform="matrix(1 0 0 1 19 19 )" />
  </g>
</svg>